<?xml version="1.0" standalone="no"?>
<!DOCTYPE svg PUBLIC "-//W3C//DTD SVG 20010904//EN"
 "http://www.w3.org/TR/2001/REC-SVG-20010904/DTD/svg10.dtd">
<svg version="1.0" xmlns="http://www.w3.org/2000/svg"
 width="500.000000pt" height="500.000000pt" viewBox="0 0 500.000000 500.000000"
 preserveAspectRatio="xMidYMid meet">

<g transform="translate(0.000000,500.000000) scale(0.100000,-0.100000)"
fill="#000000" stroke="none">
<path d="M750 2640 l0 -720 1735 0 1735 0 0 720 0 720 -1735 0 -1735 0 0 -720z
m3430 0 l0 -670 -1695 0 -1695 0 0 670 0 670 1695 0 1695 0 0 -670z"/>
<path d="M860 2635 l0 -525 820 0 820 0 0 525 0 525 -820 0 -820 0 0 -525z
m180 -59 c0 -73 -4 -98 -16 -110 -16 -17 -70 -21 -92 -8 -17 11 -4 43 17 41
40 -4 41 -1 41 86 0 84 0 85 25 85 25 0 25 0 25 -94z m205 -7 c22 -56 42 -106
43 -110 2 -5 -8 -9 -23 -9 -18 0 -29 6 -32 20 -4 16 -14 20 -53 20 -39 0 -49
-4 -53 -20 -3 -14 -14 -20 -32 -20 -15 0 -25 4 -23 9 82 211 82 211 108 211
22 0 29 -11 65 -101z m243 93 c27 -18 1 -42 -43 -42 -50 0 -75 -19 -75 -57 0
-41 27 -63 75 -63 31 0 45 -5 49 -17 9 -22 -10 -33 -57 -33 -120 0 -169 121
-79 197 28 24 103 32 130 15z m102 -32 c0 -22 3 -40 8 -40 4 1 21 19 37 40 24
31 37 39 63 40 l34 0 -46 -52 -45 -51 49 -56 49 -56 -31 -3 c-28 -3 -38 3 -75
45 l-42 48 -1 -47 c0 -44 -2 -48 -25 -48 l-25 0 0 110 0 110 25 0 c23 0 25 -4
25 -40z m325 15 c0 -17 -6 -20 -38 -17 -33 3 -38 0 -35 -15 2 -9 13 -23 26
-29 63 -31 83 -88 40 -118 -26 -18 -90 -21 -119 -6 -21 12 -23 18 -10 39 8 12
14 12 41 1 27 -11 34 -11 47 2 13 14 10 19 -29 45 -78 52 -58 127 31 121 38
-3 46 -6 46 -23z m237 -4 c29 -26 33 -35 33 -81 0 -46 -4 -55 -33 -81 -46 -41
-111 -41 -153 0 -24 25 -29 38 -29 79 0 41 5 55 29 81 24 26 36 31 75 31 36 0
52 -6 78 -29z m175 -39 l42 -67 1 68 c0 65 1 67 25 67 l25 0 0 -110 0 -110
-25 0 c-21 0 -34 13 -68 67 l-42 68 -3 -68 c-3 -64 -4 -67 -27 -67 l-25 0 0
110 0 110 28 0 c22 -1 34 -12 69 -68z"/>
<path d="M1170 2581 c0 -5 -3 -16 -6 -25 -4 -12 0 -16 16 -16 16 0 20 4 16 16
-3 9 -6 20 -6 25 0 5 -4 9 -10 9 -5 0 -10 -4 -10 -9z"/>
<path d="M2053 2620 c-27 -11 -39 -53 -27 -89 7 -20 17 -27 42 -29 44 -4 62
12 62 59 0 28 -6 42 -22 53 -25 18 -25 18 -55 6z"/>
<path d="M2816 2631 c-29 -32 -17 -71 32 -104 39 -26 42 -31 29 -45 -13 -13
-20 -13 -47 -2 -27 11 -33 11 -41 -1 -5 -8 -9 -17 -9 -21 0 -14 39 -28 77 -28
100 0 114 88 21 134 -13 6 -24 20 -26 29 -3 15 2 18 35 15 32 -3 38 0 38 17 0
30 -83 34 -109 6z"/>
<path d="M3030 2646 c0 -1 -20 -51 -45 -110 l-44 -106 29 0 c20 0 31 6 35 20
5 16 15 20 50 20 35 0 45 -4 50 -20 4 -14 15 -20 35 -20 l29 0 -45 106 c-24
58 -44 108 -44 110 0 2 -11 4 -25 4 -14 0 -25 -2 -25 -4z m39 -96 c9 -28 8
-30 -14 -30 -22 0 -23 2 -14 30 6 17 12 30 14 30 2 0 8 -13 14 -30z"/>
<path d="M3180 2540 l0 -110 25 0 c23 0 24 4 27 62 l3 63 40 -63 c33 -51 45
-62 68 -62 l27 0 0 110 0 110 -30 0 c-29 0 -29 -1 -32 -62 l-3 -63 -38 63
c-30 49 -44 62 -63 62 -24 0 -24 0 -24 -110z"/>
<path d="M3380 2630 c0 -15 7 -20 25 -20 25 0 25 -1 25 -90 0 -89 0 -90 25
-90 24 0 24 2 27 88 3 87 3 87 31 90 19 2 27 9 27 23 0 17 -8 19 -80 19 -73 0
-80 -2 -80 -20z"/>
<path d="M3579 2619 c-24 -26 -29 -40 -29 -81 0 -41 5 -54 29 -79 42 -41 107
-41 153 0 29 26 33 35 33 81 0 46 -4 55 -33 81 -26 23 -42 29 -78 29 -39 0
-51 -5 -75 -31z m109 -25 c16 -11 22 -25 22 -53 0 -47 -18 -63 -62 -59 -71 7
-61 119 12 127 3 1 16 -6 28 -15z"/>
<path d="M3820 2630 c-11 -11 -20 -29 -20 -40 0 -23 41 -66 71 -75 22 -7 25
-33 6 -41 -8 -3 -27 0 -42 6 -25 9 -31 8 -42 -6 -11 -16 -10 -20 9 -31 32 -17
103 -16 122 2 40 41 27 84 -35 116 -48 24 -46 45 4 42 37 -2 60 23 35 39 -25
15 -87 9 -108 -12z"/>
</g>
</svg>
